<?xml version="1.0" standalone="no"?>
<!DOCTYPE svg PUBLIC "-//W3C//DTD SVG 20010904//EN"
 "http://www.w3.org/TR/2001/REC-SVG-20010904/DTD/svg10.dtd">
<svg version="1.0" xmlns="http://www.w3.org/2000/svg"
 width="700.000000pt" height="700.000000pt" viewBox="0 0 700.000000 700.000000"
 preserveAspectRatio="xMidYMid meet">
<metadata>
Created by potrace 1.14, written by Peter Selinger 2001-2017
</metadata>
<g transform="translate(0.000000,700.000000) scale(0.100000,-0.100000)"
fill="#000000" stroke="none">
<path d="M3278 6995 c-1 -1 -42 -5 -89 -9 -47 -4 -95 -8 -105 -10 -10 -2 -46
-7 -79 -11 -32 -4 -68 -9 -80 -11 -11 -2 -47 -9 -80 -15 -195 -35 -523 -132
-672 -200 -24 -10 -45 -19 -47 -19 -14 0 -295 -140 -376 -187 -81 -48 -281
-178 -314 -204 -6 -5 -49 -39 -96 -76 -601 -471 -1033 -1128 -1226 -1863 -37
-141 -80 -368 -90 -475 -2 -22 -7 -76 -11 -120 -15 -152 -8 -601 12 -703 1 -9
6 -42 9 -72 7 -62 12 -94 26 -165 6 -27 12 -59 14 -71 22 -112 97 -383 125
-449 5 -11 28 -69 51 -130 45 -116 153 -340 222 -459 40 -68 185 -289 213
-324 7 -9 51 -64 96 -122 115 -145 378 -406 532 -528 229 -182 498 -347 744
-457 131 -58 154 -67 218 -90 28 -10 64 -23 80 -30 35 -15 254 -77 335 -95 30
-7 66 -16 80 -21 14 -4 48 -11 75 -15 28 -4 57 -9 65 -10 20 -5 75 -13 135
-20 28 -3 61 -7 75 -10 101 -17 463 -24 606 -13 330 27 577 75 859 166 220 71
517 205 667 299 21 13 40 24 43 24 4 0 68 42 143 92 331 224 627 503 851 803
64 86 145 201 166 237 5 9 29 48 51 85 54 89 143 260 184 354 18 41 40 92 50
114 29 67 97 267 125 369 33 122 31 111 59 246 23 109 29 144 42 243 3 23 7
56 9 72 18 120 24 488 12 635 -4 41 -9 104 -12 140 -3 36 -8 74 -10 86 -3 12
-7 39 -10 60 -22 150 -76 379 -129 544 -23 73 -98 273 -114 308 -92 189 -157
316 -205 397 -193 324 -404 577 -718 861 -67 61 -286 225 -386 290 -101 65
-259 155 -353 201 -140 68 -194 93 -202 93 -4 0 -27 8 -51 19 -80 35 -102 43
-224 81 -176 56 -376 105 -518 126 -27 4 -57 9 -65 10 -8 2 -42 6 -76 9 -33 4
-74 9 -90 11 -33 5 -540 14 -546 9z"/>
</g>
</svg>
