<svg width="604" height="604" viewBox="0 0 604 604" fill="none" xmlns="http://www.w3.org/2000/svg">
<path d="M301.837 603.674C468.537 603.674 603.674 468.537 603.674 301.837C603.674 135.137 468.537 0 301.837 0C135.137 0 0 135.137 0 301.837C0 468.537 135.137 603.674 301.837 603.674Z" fill="#1A1A17"/>
<path d="M162.584 218.299H129.448V211.042H191.614V344.391C191.614 362.816 197.21 377.918 208.402 389.696C220.767 401.524 236.479 407.437 255.54 407.437C276.408 407.437 294.247 400.009 309.056 385.151C314.481 379.726 318.855 374.155 322.178 368.437V218.299H297.253V211.042H351.208V406.044H381.119V413.302H322.178V379.286C317.34 386.226 313.112 391.529 309.495 395.195C291.657 413.033 269.126 421.952 241.904 421.952C216.246 421.317 196.306 414.206 182.084 400.619C169.084 387.619 162.584 369.927 162.584 347.543L162.584 218.299ZM503.545 413.302H460.073V376.134H503.545V413.302Z" fill="#35272A"/>
<path d="M147.921 203.637H114.786V196.38H176.952V329.729C176.952 348.154 182.548 363.256 193.74 375.034C206.105 386.862 221.817 392.775 240.878 392.775C261.746 392.775 279.585 385.347 294.393 370.489C299.818 365.064 304.193 359.493 307.516 353.775V203.637H282.591V196.38H336.546V391.382H366.457V398.64H307.516V364.624C302.677 371.564 298.45 376.867 294.833 380.533C276.995 398.371 254.464 407.29 227.242 407.29C201.584 406.655 181.644 399.544 167.422 385.957C154.422 372.957 147.921 355.265 147.921 332.882V203.637ZM488.883 398.64H445.411V361.472H488.883V398.64Z" fill="#D5D5D5"/>
</svg>
